This is a stereoscopic 3D rip of G-Force, for new 3D TVs or computers with Nvidia 3D Vision. Tested with Stereoscopic Player. Enjoy!

Title: G-Force (2009)
Rated: PG
Runtime: 88 Minutes
Genre: Action | Adventure | Comedy

Description:
The story is about a team of trained secret agent guinea pigs that takes on a mission for the US government. A specially trained squad of guinea pigs is dispatched to stop a diabolical billionaire, who plans to taking over the world with household appliances.
-From IMDB Page: http://www.imdb.com/title/tt0436339/

General
Unique ID : 249575200523963617903015004726309878359 (0xBBC26F69B260F0609B0383ABB202FA57)
Complete name : [filepath]\G-Force 3D.mkv
Format : Matroska
File size : 4.95 GiB
Duration : 1h 24mn
Overall bit rate : 8 385 Kbps
Encoded date : UTC 2010-10-17 13:42:38
Writing application : mkvmerge v4.2.0 ('No Talking') built on Jul 28 2010 18:38:23
Writing library : libebml v1.0.0 + libmatroska v1.0.0

Video
ID : 1
Format : AVC
Format/Info : Advanced Video Codec
Format profile : High@L4.1
Format settings, CABAC : Yes
Format settings, ReFrames : 4 frames
Codec ID : V_MPEG4/ISO/AVC
Duration : 1h 24mn
Bit rate : 8 000 Kbps
Width : 1 920 pixels
Height : 1 080 pixels
Display aspect ratio : 16:9
Frame rate : 25.000 fps
Color space : YUV
Chroma subsampling : 4:2:0
Bit depth : 8 bits
Scan type : Progressive
Bits/(Pixel*Frame) : 0.154
Stream size : 4.63 GiB (93%)
Writing library : x264 core 104 r1698 c41b8f0

Audio
ID : 2
Format : AC-3
Format/Info : Audio Coding 3
Mode extension : CM (complete main)
Codec ID : A_AC3
Duration : 1h 24mn
Bit rate mode : Constant
Bit rate : 384 Kbps
Channel(s) : 6 channels
Channel positions : Front: L C R, Side: L R, LFE
Sampling rate : 48.0 KHz
Bit depth : 16 bits
Compression mode : Lossy
Stream size : 232 MiB (5%)
Language : English